<?xml version="1.0" encoding="utf-8"?>
<!-- Generator: Adobe Illustrator 23.0.1, SVG Export Plug-In . SVG Version: 6.00 Build 0)  -->
<svg version="1.1" id="Layer_1" xmlns="http://www.w3.org/2000/svg" xmlns:xlink="http://www.w3.org/1999/xlink" x="0px" y="0px"
	 viewBox="0 0 805 524.4" style="enable-background:new 0 0 805 524.4;" xml:space="preserve">
<style type="text/css">
	.st0{fill:none;stroke:#FF0000;stroke-width:0.1;stroke-linecap:round;}
	.st1{fill:none;stroke:#231815;stroke-miterlimit:10;}
</style>
<g id="svgGroup">
	<path id="front_outsideCutPath" vector-effect="non-scaling-stroke" class="st0" d="M-25.4,266.8v19.6h9v18.1h-9v18.1h9v18.1h-9
		v18.1h9v18.1h-9v18.1h9v18.1h-9v18.1h9V449h-9V467h9v18.1h-9v18.1h9v18.1h-9v19.6H6.3v-9h18.1v9h18.1v-9h18.1v9h18.1v-9h18.1v9
		h18.1v-9h18.1v9h18.1v-9H169v9H187v-9h18.1v9h18.1v-9h18.1v9h18.1v-9h18.1v9h18.1h13.6v-19.5h-9v-18.1h9v-18.1h-9v-18.1h9v-18.1h-9
		V431h9v-18.1h-9v-18.1h9v-18.1h-9v-18.1h9v-18.1h-9v-18.1h9v-18.1h-9v-18.1h9v-19.6h-31.7v9h-18.1v-9h-18.1v9h-18.1v-9h-18.1v9H187
		v-9H169v9h-18.1v-9h-18.1v9h-18.1v-9H96.7v9H78.6v-9H60.5v9H42.5v-9H24.4v9H6.3v-9h-18.1h-13.6V266.8z"/>
	<path id="left_outsideCutPath" vector-effect="non-scaling-stroke" class="st0" d="M327.2,266.8v19.6h-9v18.1h9v18.1h-9v18.1h9
		v18.1h-9v18.1h9v18.1h-9v18.1h9v18.1h-9V449h9V467h-9v18.1h9v18.1h-9v18.1h9v19.6h12v-9h18.1v9h18.1v-9h18.1v9h18.1v-9h18.1v9h18.1
		v-9h18.1v9h12v-19.5h9v-18.1h-9v-18.1h9v-18.1h-9v-18.1h9V431h-9v-18.1h9v-18.1h-9v-18.1h9v-18.1h-9v-18.1h9v-18.1h-9v-18.1h9
		v-18.1h-9v-19.6h-12v9h-18.1v-9h-18.1v9h-18.1v-9h-18.1v9h-18.1v-9h-18.1v9h-18.1v-9h-12V266.8z"/>
	<path id="top_outsideCutPath" vector-effect="non-scaling-stroke" class="st0" d="M505,381.3v12h-9v18.1h9v18.1h-9v18.1h9v18.1h-9
		v18.1h9v18.1h-9v18.1h9v12h22.6v9h18.1v-9h18.1v9h18.1v-9h18.1v9H618v-9H636v9h18.1v-9h18.1v9h18.1v-9h18.1v9h18.1v-9h18.1v9h18.1
		v-9h18.1v9h18.1v-9h18.1h4.6v-12h9v-18.1h-9v-18.1h9v-18.1h-9v-18.1h9v-18.1h-9v-18.1h9v-18.1h-9v-12h-22.6v-9h-18.1v9h-18.1v-9
		h-18.1v9h-18.1v-9h-18.1v9h-18.1v-9h-18.1v9h-18.1v-9H636v9H618v-9h-18.1v9h-18.1v-9h-18.1v9h-18.1v-9h-18.1v9h-18.1H505z"/>
	<path id="back_outsideCutPath" vector-effect="non-scaling-stroke" class="st0" d="M-25.4-16.5V3h9v18.1h-9v18.1h9v18.1h-9v18.1h9
		v18.1h-9v18.1h9v18.1h-9v18.1h9v18.1h-9v18.1h9v18.1h-9v18.1h9V238h-9v19.8H6.3v-9h18.1v9h18.1v-9h18.1v9h18.1v-9h18.1v9h18.1v-9
		h18.1v9h18.1v-9H169v9H187v-9h18.1v9h18.1v-9h18.1v9h18.1v-9h18.1v9h18.1h13.6v-19.6h-9v-18.1h9V202h-9V184h9v-18.1h-9v-18.1h9
		v-18.1h-9v-18.1h9V93.6h-9V75.5h9V57.5h-9V39.4h9V21.3h-9V3.3h9v-19.8h-31.7v9h-18.1v-9h-18.1v9h-18.1v-9h-18.1v9H187v-9H169v9
		h-18.1v-9h-18.1v9h-18.1v-9H96.7v9H78.6v-9H60.5v9H42.5v-9H24.4v9H6.3v-9h-18.1H-25.4z"/>
	<path id="right_outsideCutPath" vector-effect="non-scaling-stroke" class="st0" d="M327.2-16.5V3h-9v18.1h9v18.1h-9v18.1h9v18.1
		h-9v18.1h9v18.1h-9v18.1h9v18.1h-9v18.1h9v18.1h-9v18.1h9v18.1h-9V238h9v19.8h12v-9h18.1v9h18.1v-9h18.1v9h18.1v-9h18.1v9h18.1v-9
		h18.1v9h12v-19.6h9v-18.1h-9V202h9V184h-9v-18.1h9v-18.1h-9v-18.1h9v-18.1h-9V93.6h9V75.5h-9V57.5h9V39.4h-9V21.3h9V3.3h-9v-19.8
		h-12v9h-18.1v-9h-18.1v9h-18.1v-9h-18.1v9h-18.1v-9h-18.1v9h-18.1v-9H327.2z"/>
	<path id="bottom_outsideCutPath" vector-effect="non-scaling-stroke" class="st0" d="M505,203.4v12h-9v18.1h9v18.1h-9v18.1h9v18.1
		h-9v18.1h9v18.1h-9v18.1h9v12h22.6v9h18.1v-9h18.1v9h18.1v-9h18.1v9H618v-9H636v9h18.1v-9h18.1v9h18.1v-9h18.1v9h18.1v-9h18.1v9
		h18.1v-9h18.1v9h18.1v-9h18.1h4.6v-12h9v-18.1h-9v-18.1h9v-18.1h-9v-18.1h9v-18.1h-9v-18.1h9v-18.1h-9v-12h-22.6v-9h-18.1v9h-18.1
		v-9h-18.1v9h-18.1v-9h-18.1v9h-18.1v-9h-18.1v9h-18.1v-9H636v9H618v-9h-18.1v9h-18.1v-9h-18.1v9h-18.1v-9h-18.1v9h-18.1L505,203.4
		L505,203.4z"/>
</g>
<circle class="st1" cx="228.7" cy="115.8" r="3.8"/>
<circle class="st1" cx="228.7" cy="46.3" r="3.8"/>
<rect x="564.8" y="495.5" class="st1" width="25.7" height="25.8"/>
<rect x="414.8" y="356.3" class="st1" width="52.2" height="45.2"/>
<circle class="st1" cx="288.7" cy="287.6" r="7.5"/>
<circle class="st1" cx="288.7" cy="521.4" r="7.5"/>
<circle class="st1" cx="-5.4" cy="287.6" r="7.5"/>
<circle class="st1" cx="-5.4" cy="521.4" r="7.5"/>
<circle class="st1" cx="19.5" cy="213.2" r="7.1"/>
<circle class="st1" cx="104.5" cy="128.2" r="94.8"/>
<circle class="st1" cx="189.6" cy="213.2" r="7.1"/>
<circle class="st1" cx="189.6" cy="43.1" r="7.1"/>
<circle class="st1" cx="19.5" cy="46.3" r="7.1"/>
<circle class="st1" cx="288.9" cy="4.7" r="7.5"/>
<circle class="st1" cx="288.9" cy="238.5" r="7.5"/>
<circle class="st1" cx="-5.2" cy="4.7" r="7.5"/>
<circle class="st1" cx="-5.2" cy="238.5" r="7.5"/>
</svg>
